<svg xmlns="http://www.w3.org/2000/svg" viewBox="0 0 800 450" width="800" height="450">
  <rect width="100%" height="100%" fill="#1e1e2e"/>
  <text x="400" y="35" font-family="sans-serif" font-size="18" font-weight="bold" fill="#f5e0dc" text-anchor="middle">
    Monte Carlo Convergence: Standard Deviation of P50 Estimate (₹)
  </text>
  <text x="400" y="55" font-family="sans-serif" font-size="12" fill="#bac2de" text-anchor="middle">
    Halton Quasi-Monte Carlo (QMC) vs Naive Pseudo-Random (PRNG) across 10 Repetitions
  </text>

  <!-- Grid lines -->
  <line x1="100" y1="100" x2="750" y2="100" stroke="#45475a" stroke-dasharray="4"/>
  <line x1="100" y1="180" x2="750" y2="180" stroke="#45475a" stroke-dasharray="4"/>
  <line x1="100" y1="260" x2="750" y2="260" stroke="#45475a" stroke-dasharray="4"/>
  <line x1="100" y1="340" x2="750" y2="340" stroke="#45475a" stroke-dasharray="4"/>
  <line x1="100" y1="380" x2="750" y2="380" stroke="#a6adc8"/>

  <!-- Y-Axis Labels -->
  <text x="85" y="105" font-family="sans-serif" font-size="11" fill="#a6adc8" text-anchor="end">₹50,000</text>
  <text x="85" y="185" font-family="sans-serif" font-size="11" fill="#a6adc8" text-anchor="end">₹25,000</text>
  <text x="85" y="265" font-family="sans-serif" font-size="11" fill="#a6adc8" text-anchor="end">₹10,000</text>
  <text x="85" y="345" font-family="sans-serif" font-size="11" fill="#a6adc8" text-anchor="end">₹2,000</text>
  <text x="85" y="385" font-family="sans-serif" font-size="11" fill="#a6adc8" text-anchor="end">₹0</text>

  <!-- X-Axis Labels -->
  <text x="150" y="405" font-family="sans-serif" font-size="12" fill="#cdd6f4" text-anchor="middle">N = 100</text>
  <text x="330" y="405" font-family="sans-serif" font-size="12" fill="#cdd6f4" text-anchor="middle">N = 1,000</text>
  <text x="510" y="405" font-family="sans-serif" font-size="12" fill="#cdd6f4" text-anchor="middle">N = 10,000</text>
  <text x="690" y="405" font-family="sans-serif" font-size="12" fill="#cdd6f4" text-anchor="middle">N = 100,000</text>

  <!-- Legend -->
  <rect x="520" y="70" width="15" height="15" fill="#89b4fa" rx="3"/>
  <text x="545" y="82" font-family="sans-serif" font-size="12" fill="#cdd6f4">Halton QMC</text>
  <rect x="640" y="70" width="15" height="15" fill="#f38ba8" rx="3"/>
  <text x="665" y="82" font-family="sans-serif" font-size="12" fill="#cdd6f4">Naive PRNG</text>
</svg>